<?xml version="1.0" standalone="no"?>
<!DOCTYPE svg PUBLIC "-//W3C//DTD SVG 20010904//EN"
 "http://www.w3.org/TR/2001/REC-SVG-20010904/DTD/svg10.dtd">
<svg version="1.0" xmlns="http://www.w3.org/2000/svg"
 width="412.000000pt" height="470.000000pt" viewBox="0 0 412.000000 470.000000"
 preserveAspectRatio="xMidYMid meet">
<metadata>
Created by potrace 1.15, written by Peter Selinger 2001-2017
</metadata>
<g transform="translate(0.000000,470.000000) scale(0.100000,-0.100000)"
fill="#000000" stroke="none">
<path d="M0 2350 l0 -2350 2060 0 2060 0 0 2350 0 2350 -2060 0 -2060 0 0
-2350z m2125 2331 c3 -5 0 -13 -6 -17 -27 -16 -49 -90 -49 -167 0 -115 2 -117
116 -117 55 0 122 -7 157 -16 76 -20 102 -10 116 43 15 53 14 148 -3 186 -7
18 -25 43 -39 56 -15 13 -24 28 -21 32 9 15 1688 11 1702 -3 9 -9 12 -320 12
-1338 0 -730 -3 -1330 -7 -1333 -3 -4 -17 2 -29 14 -30 28 -115 47 -246 55
-73 5 -115 12 -131 23 -122 81 -197 135 -197 140 0 3 8 40 17 81 21 95 21 332
0 444 -14 76 -14 79 6 84 18 5 19 11 15 96 -6 103 -37 205 -90 293 -41 69
-143 180 -208 228 -47 35 -48 36 -34 63 7 15 14 51 14 79 0 43 -5 58 -28 84
-15 17 -42 34 -62 38 -32 6 -39 14 -79 96 -36 74 -60 106 -135 181 -122 122
-232 181 -416 224 -42 9 -66 23 -100 56 -51 48 -84 64 -139 64 -54 0 -101 -18
-138 -53 -30 -29 -34 -29 -100 -23 -183 19 -177 19 -239 -7 -32 -13 -77 -28
-99 -31 -64 -11 -195 -55 -263 -89 -150 -75 -272 -200 -331 -342 -28 -66 -32
-70 -67 -76 -78 -13 -120 -103 -90 -190 16 -44 16 -44 -12 -63 -52 -37 -187
-183 -221 -239 -57 -96 -83 -181 -88 -288 -5 -90 -4 -96 15 -101 19 -5 20 -8
6 -69 -8 -35 -17 -117 -21 -182 -3 -65 -10 -120 -14 -123 -4 -2 -31 16 -59 41
-31 28 -60 45 -76 45 -15 0 -43 16 -72 43 -111 101 -120 107 -167 107 -57 0
-85 -13 -113 -54 -26 -38 -30 -120 -8 -149 13 -16 11 -23 -10 -54 -13 -20 -24
-43 -24 -53 0 -19 -43 -63 -53 -53 -9 8 -9 2328 0 2336 10 11 2101 8 2108 -2z
m205 -51 c54 -27 82 -83 78 -153 -3 -49 -5 -52 -28 -50 -14 1 -71 5 -128 9
-88 6 -105 10 -118 28 -7 11 -14 27 -14 36 0 37 24 96 50 122 23 23 37 28 75
28 26 0 63 -9 85 -20z m-9 -351 c31 -15 46 -33 65 -72 13 -29 24 -65 24 -82
-1 -68 -64 -152 -128 -168 -12 -3 -38 -1 -56 4 -128 35 -171 208 -74 295 55
50 104 57 169 23z m-374 -53 c105 -49 125 -175 41 -253 -35 -33 -142 -41 -185
-14 -46 29 -76 93 -70 149 6 56 32 91 87 120 55 28 63 27 127 -2z m-265 -106
c-6 -75 7 -128 41 -167 21 -23 28 -38 20 -40 -7 -3 -52 -24 -100 -47 -88 -43
-186 -121 -212 -168 -10 -20 -28 -28 -89 -43 -42 -10 -111 -30 -153 -44 l-75
-27 -2 27 c-3 40 35 156 76 229 50 90 150 185 252 239 82 44 216 93 235 87 6
-2 8 -22 7 -46z m998 -32 c87 -42 117 -63 175 -122 45 -45 84 -97 107 -141 40
-78 82 -215 70 -227 -5 -5 -39 3 -76 16 -37 14 -99 32 -138 41 -67 15 -74 19
-147 93 -78 79 -151 125 -248 157 -29 9 -53 19 -53 22 0 3 13 21 30 39 30 34
60 117 60 164 0 15 3 29 6 33 11 10 107 -24 214 -75z m-400 -213 c143 -34 293
-113 350 -185 155 -195 87 -417 -164 -540 -205 -101 -452 -115 -681 -39 -217
72 -337 195 -352 359 -17 188 184 363 477 416 91 16 277 11 370 -11z m-917
-369 c-10 -136 28 -228 136 -329 173 -160 499 -225 806 -161 316 66 506 267
479 507 -7 68 -7 68 102 32 292 -98 477 -264 556 -499 28 -85 28 -102 -2 -86
-27 15 -50 12 -50 -5 0 -8 13 -61 29 -118 157 -559 -82 -995 -640 -1172 -44
-14 -85 -25 -90 -25 -6 0 -21 25 -35 55 -13 31 -30 58 -38 61 -7 3 -51 -22
-97 -55 -98 -70 -285 -169 -380 -201 l-66 -22 -89 35 c-123 47 -211 93 -328
171 -55 36 -108 66 -117 66 -11 0 -26 -19 -43 -55 -14 -30 -29 -55 -34 -55 -6
0 -56 16 -113 36 -321 112 -513 278 -609 526 -78 202 -80 440 -4 678 14 45 23
84 20 88 -3 3 -18 0 -32 -7 -48 -21 -52 0 -21 92 83 238 268 402 567 497 47
15 88 26 92 24 3 -2 4 -37 1 -78z m-1263 -1438 c94 -85 128 -108 157 -108 19
0 244 -170 251 -190 2 -5 -8 -31 -22 -59 -67 -132 -114 -280 -148 -470 -15
-88 -22 -175 -25 -358 l-5 -241 43 -6 c24 -3 102 -7 173 -8 l130 -3 6 25 c6
24 8 25 109 28 67 2 108 -1 117 -9 25 -20 15 -51 -27 -87 -23 -20 -55 -54 -70
-75 -26 -35 -29 -49 -29 -112 0 -63 3 -74 25 -95 l25 -23 1261 1 c1115 0 1263
2 1284 16 28 19 40 75 30 148 -7 48 -14 58 -77 121 -50 50 -68 75 -66 91 3 20
8 21 118 21 113 0 114 0 120 -25 l6 -25 135 4 c74 1 152 6 174 10 l40 7 -1
219 c-1 235 -16 369 -58 536 l-23 91 21 8 c42 16 86 91 86 145 0 29 7 31 34
10 26 -19 109 -19 146 0 15 8 34 28 42 45 7 16 16 30 20 30 5 0 7 -386 6 -857
l-3 -858 -2034 -3 c-1495 -1 -2037 1 -2047 9 -12 10 -14 191 -14 1065 0 580 3
1054 6 1054 3 0 41 -32 84 -72z m3420 45 c0 -4 -14 -49 -32 -100 -29 -85 -32
-91 -45 -73 -20 28 -43 25 -43 -5 0 -14 9 -51 20 -82 11 -32 20 -67 20 -78 0
-12 3 -25 7 -29 4 -4 13 -26 20 -48 12 -43 2 -78 -24 -78 -6 0 -18 -6 -25 -13
-21 -21 -127 -97 -134 -97 -4 0 -15 -6 -23 -14 -9 -8 -59 -36 -113 -63 l-96
-50 -61 58 c-34 33 -61 61 -61 63 0 3 -11 16 -24 30 -25 28 -46 34 -46 13 0
-20 30 -57 46 -57 8 0 14 -7 14 -15 0 -8 4 -15 8 -15 5 0 15 -11 22 -25 7 -13
21 -27 32 -31 10 -3 18 -14 18 -24 0 -15 -20 -25 -95 -49 -156 -51 -417 -110
-492 -111 -20 0 -15 14 9 25 32 15 55 55 62 108 5 39 3 47 -11 47 -9 0 -26 9
-37 19 -21 19 -103 51 -131 51 -31 0 -13 17 46 46 34 16 98 52 143 81 44 28
84 49 88 47 5 -3 17 -23 28 -45 11 -21 26 -39 33 -39 7 0 43 8 80 19 56 15 70
16 84 5 30 -22 46 -17 39 11 -4 14 -2 25 3 25 6 0 54 19 107 42 87 37 195 101
264 157 14 11 31 21 38 21 6 0 12 6 12 13 0 16 47 61 73 70 9 4 17 13 17 20 0
8 20 45 44 83 75 116 75 115 97 104 10 -6 19 -14 19 -17z m-2809 -80 c27 -18
35 -29 32 -44 -4 -14 0 -19 15 -19 11 0 35 -19 57 -45 51 -63 189 -177 253
-209 28 -14 52 -31 52 -36 0 -6 8 -10 19 -10 20 0 108 -36 128 -52 10 -8 2
-21 -31 -52 -24 -23 -47 -52 -50 -64 -4 -12 -13 -22 -19 -22 -7 -1 -25 -19
-42 -40 -16 -21 -36 -39 -43 -40 -19 0 -187 86 -245 127 -73 51 -147 114 -158
135 -7 13 -1 46 21 115 36 115 38 143 11 143 -11 0 -23 -9 -26 -20 -3 -11 -13
-20 -21 -20 -8 0 -14 -7 -14 -15 0 -23 -22 -65 -34 -65 -12 0 -129 97 -134
111 -2 4 16 25 40 46 24 21 59 54 78 75 39 42 51 42 111 1z m930 -432 c41 -26
102 -63 137 -81 34 -17 62 -36 62 -40 0 -9 -54 -30 -77 -30 -14 0 -27 -9 -69
-47 -20 -19 -24 -32 -24 -82 0 -54 2 -60 22 -63 12 -2 24 -9 26 -17 4 -11 -7
-13 -59 -7 -71 8 -321 67 -414 97 -128 42 -134 48 -90 89 14 13 25 29 25 37 0
7 6 13 13 13 6 1 35 27 62 60 28 32 56 61 63 64 7 3 45 -3 85 -14 91 -25 114
-25 122 0 3 11 13 20 21 20 9 0 14 8 13 18 -2 21 0 32 5 32 2 0 36 -22 77 -49z
m484 -191 c3 -5 21 -10 38 -10 54 0 61 -13 26 -46 -27 -26 -30 -35 -28 -79 3
-55 -1 -57 -58 -34 -28 11 -37 11 -68 -4 -20 -10 -41 -15 -46 -12 -5 4 -6 24
-3 46 6 37 4 44 -31 79 l-38 39 39 6 c22 3 48 10 59 15 28 12 103 12 110 0z
m110 -384 c37 -16 39 -18 22 -31 -30 -22 -144 -38 -223 -32 -71 6 -154 31
-154 47 0 8 37 24 75 34 46 11 240 -1 280 -18z"/>
<path d="M1801 4650 c-52 -11 -104 -49 -129 -93 -13 -24 -17 -56 -17 -129 0
-134 3 -137 128 -115 51 9 128 17 170 17 75 0 78 1 88 28 6 15 9 65 7 113 -4
91 -21 129 -72 163 -31 20 -117 28 -175 16z m123 -66 c22 -11 40 -30 52 -56
18 -39 23 -115 10 -136 -5 -8 -39 -12 -94 -12 -48 0 -104 -4 -124 -9 -48 -11
-59 2 -60 67 0 76 33 128 97 150 44 15 80 14 119 -4z"/>
<path d="M1081 3131 c-25 -25 -27 -51 -6 -51 8 0 23 -8 33 -18 17 -17 18 -33
14 -178 -7 -239 21 -402 92 -543 40 -79 149 -183 222 -212 l59 -24 548 -3
c473 -2 557 -1 610 13 166 43 282 176 336 390 28 109 43 297 35 432 -7 125 0
148 42 137 20 -5 24 -2 24 15 0 26 -34 61 -59 61 -32 0 -51 -11 -51 -30 0 -22
-98 -114 -194 -182 -89 -64 -249 -141 -294 -142 -30 -1 -35 3 -45 34 -7 19
-19 36 -27 38 -9 1 -61 -27 -115 -64 -55 -37 -128 -80 -163 -97 l-63 -29 -82
39 c-45 22 -120 65 -166 97 -46 31 -92 56 -101 56 -12 0 -21 -14 -30 -44 l-12
-45 -80 29 c-130 48 -253 124 -389 242 -38 33 -55 55 -55 71 1 31 -54 37 -83
8z m793 -427 c54 -34 73 -50 60 -53 -31 -6 -166 20 -261 50 -88 28 -120 44
-70 35 12 -3 22 -5 22 -6 0 -1 23 -3 51 -6 51 -5 52 -4 63 27 10 30 12 31 33
17 13 -8 58 -36 102 -64z m532 45 c15 -30 18 -31 57 -24 23 4 51 8 62 9 11 0
23 5 26 10 4 4 9 4 13 -2 11 -18 -173 -75 -284 -87 -30 -3 -65 -8 -77 -11 -13
-2 -23 0 -23 6 0 6 4 9 9 6 5 -4 11 -2 13 2 2 7 175 120 185 122 1 0 10 -14
19 -31z m-409 -454 c3 -9 13 -15 22 -14 9 1 24 -1 34 -6 12 -5 32 -1 57 14 51
28 73 27 113 -8 32 -28 62 -95 51 -113 -3 -4 -93 -8 -200 -8 -210 0 -213 1
-200 54 16 63 106 123 123 81z"/>
</g>
</svg>
