<?xml version="1.0" encoding="utf-8"?>
<svg width="76" height="76" viewBox="0 0 76 48" xmlns="http://www.w3.org/2000/svg">
    <title>
        brand/logo/header
    </title>
    <g fill="#F36A10" fill-rule="evenodd">
        <path d="M67.806 35.551l.031-.012a14.607 14.607 0 0 0 .598-.259c.024-.01.049-.02.072-.032v-.001c2.592-1.198 5.038-3.256 6.878-6.657l-6.472-3.68-.015-.01-.39-.222-1.379-.784c-.198.358-.406.697-.626 1.016h.028a8.416 8.416 0 0 1-.231.32h-.027a7.486 7.486 0 0 1-.855.966 5.672 5.672 0 0 1-3.565 1.48 7.246 7.246 0 0 1-.37.011c-1.993 0-4.045-1.298-5.02-3.524-.347-.85-.552-1.824-.581-2.89 0-4.069 2.27-6.682 5.157-6.924l.18-.014a5.412 5.412 0 0 1 .68.007c.023 0 .046.002.07.004.133.009.264.022.392.039l.04.006c.256.035.5.087.733.152l.095.027c.09.027.176.056.262.086 1.707.62 2.617 2.022 3.424 3.335l8.211-4.823s-.015-.045-.046-.126h.046c-.056-.102-.115-.202-.173-.303-.633-1.415-3.14-5.911-9.869-7.128l-.187-.038v.004a18.066 18.066 0 0 0-.32-.05v-.012a18.176 18.176 0 0 0-.5-.073h-.122a21.389 21.389 0 0 0-2.988-.132c-7.643.176-12.928 4.762-14.654 11.193l-.01.037-.002.004c-.042.15-.082.301-.12.453h.007c-.025.108-.05.215-.073.323h-.007a16.598 16.598 0 0 0-.41 3.636h.006a15.138 15.138 0 0 0 .111 2.152l.01.088.02.152c.07.533.164 1.053.28 1.56h.016c.026.108.053.216.081.323H46.2a15.32 15.32 0 0 0 1.427 3.636h.03c.057.106.115.212.175.317h-.02c.276.475.576.931.897 1.368 2.548 3.553 6.716 6.184 12.516 6.184 1.2 0 2.314-.097 3.352-.275v-.005l.32-.058v.004a15.564 15.564 0 0 0 2.909-.85M22.081 24.909h.055a6.923 6.923 0 0 1-.465-.89v.179a6.2 6.2 0 0 1-.32-.793l-.005-.325a7.557 7.557 0 0 1-.317-1.78l.484-.77-.004-.035c-.007-.053-.012-.107-.017-.16-.045-.486-.11-1.789.355-2.783.04-.078.08-.156.122-.232l.006-.475c.27-.339.572-.647.901-.921.434-.335.937-.64 1.389-.86.341-.15.7-.27 1.077-.352l.013-.127.002-.01.004-.04c1.128-.286 1.614-.332 2.013-.334.147.003.293.01.436.022 1.352.132 3.537.924 4.783 3.097.106.186.203.378.292.575l.038.09c.028.064.056.129.082.194.335.854.537 1.875.537 3.094a7.735 7.735 0 0 1-.083.962v.08a6.944 6.944 0 0 1-.319 1.257v-.02a7.116 7.116 0 0 1-.279.69c-.958 1.995-2.9 3.55-5.64 3.569a6.432 6.432 0 0 1-.706-.05c-1.211-.178-2.633-.833-3.727-1.972a6.457 6.457 0 0 1-.44-.558h-.038a6.249 6.249 0 0 1-.229-.322zm-.206-11.732l-.518 3.706-3.582.455.452 3.607 3.068-.388-.266.74-.004-.053-3.318.064.058 3.61.524-.01h3.382v4.277h-4.319v3.636h.006l-.006.322h-.629c2.948 2.67 7.407 3.593 9.953 3.593.101 0 .201-.002.301-.004a17.945 17.945 0 0 0 2.233-.107v-.044c.108-.013.214-.027.32-.042v.049a17.051 17.051 0 0 0 3.61-.864v-.062c.108-.038.214-.078.32-.118v.06a16.297 16.297 0 0 0 3.61-1.926v-.027c.107-.075.214-.15.32-.228v.02c.132-.1.265-.197.394-.3h-.023c.134-.106.266-.213.397-.322h.013c.21-.18.414-.365.615-.554a15.138 15.138 0 0 0 4.46-7.755c.023-.094.042-.188.062-.283l.023-.11c.02-.1.039-.2.057-.301l.019-.105a14.411 14.411 0 0 0 .104-.69l.023-.201.023-.202c.056-.547.085-1.102.085-1.664v-.035c0-.159-.002-.316-.007-.474-.294-10.852-9.98-14.78-13.79-14.992l-.064-.01h-.25l-.001 3.96v3.957l-7.655-.185zM10.004 6.928c-.513.13-1.024.269-1.532.417l.65.48.882-.897zm7.354-4.916c-1.155.393-1.775.68-1.922.742l1.678.538.244-1.28zm.989 4.853L15.65 5.92l-1.759 1.733 1.088 2.598zm-5.374-3.929L12.798.15a17.855 17.855 0 0 0-3.509 2.76l.184.962 3.5-.937zM5.916 4.643l-1.092-.177c-.906.564-1.48.772-2.232 1.518l-.196.903 4.031.49-.511-2.734zM22.63 1.292l-.324-.06a17.068 17.068 0 0 0-3.365.162l-.515 2.816 3.551.658.652-3.576z"/>
        <path d="M29.352 5.236l-3.578-.476-.473 3.605 3.579.476zm-9.308 6.702l3.498-.897-.89-3.523-3.498.896zm8.195 1.104h.161V9.406h-3.609v3.636h.53zM11.857 28.365L8.87 26.323l-1.115 1.65c1.258.43 2.548.686 3.843.774l.258-.382zm-2.738 2.798l-.293-.803-1-.016c.422.277.857.547 1.293.819m1.661-.355l.457.756c1.142.485 2.343.83 3.577 1.026l.927-.57-1.878-3.104-3.083 1.892zm8.241-1.868l.386-3.635-3.587-.396-.385 3.636zM2.14 24.927c1.161.245 2.323.35 3.472.32l.547-1.916-3.348-.752-.67 2.348zm1.149-5.962c.544 1.007.895 1.696 1.698 2.59l1.846-1.6-2.02-2.312-1.524 1.322zm6.876 4.573l2.514-.255-.093 2.606 3.07-1.34.008-2.46-2.033-.167-.237-2.366-3.592.364zM1.261 11.95l-.475.136c-.676.89-.858 1.477-.762 2.71l3.002-.716-1.765-2.13zm7.529.959l-.343 3.25 3.592.374.38-3.594-2.755-.287.176-2.235-.507-.107-1.8-.38-.98-.209-1.16 2.387zm10.889 2.688l-.34-3.619-3.594.342.34 3.62zM8.555 45.625c0 .358 0 .929-.656.929-.543 0-.656-.387-.656-.93V43.83c0-.204 0-.795.67-.795.642 0 .642.436.642.795v1.795zm-.68-3.54c-.519 0-1.039.133-1.386.492-.385.394-.482.9-.482 1.429v1.386c0 .225.023.675.143 1.041.28.873 1.168 1.057 1.711 1.057.354 0 1.018-.05 1.478-.515.346-.352.474-.816.474-1.541V44.18c0-.83-.174-1.288-.483-1.597-.37-.373-.89-.5-1.454-.5zm5.429 2.406c-.143.057-.362.057-.942.057v-1.514c.731 0 .821 0 1.018.07.165.064.368.17.368.67 0 .527-.345.682-.444.717m-.34-2.309h-1.823v5.166h1.221v-1.935l.663-.021c.43-.015.867-.035 1.266-.26.249-.141.724-.521.724-1.323 0-.514-.16-.93-.505-1.218-.294-.246-.731-.409-1.545-.409m4.372 2.985h1.712v-.943h-1.727v-1.099h2.51v-.943h-3.715v5.166h3.89v-.963h-2.67zm6.747-1.063c0 .197 0 .239.022.591l.031.521H24.1c-.021-.035-.097-.225-.12-.267a7.522 7.522 0 0 0-.188-.352l-1.424-2.415h-1.161v5.166h1.115v-2.42c0-.134-.03-.789-.037-.936h.037c.287.626.294.647.415.85l1.47 2.506h.994v-5.166h-1.116v1.922zm4.388 2.421c-.67 0-.67-.543-.67-.824v-1.964c0-.14.007-.393.204-.562a.74.74 0 0 1 .46-.162c.603 0 .617.564.625.817h1.213c-.015-.416-.075-1.05-.573-1.415-.383-.282-.882-.345-1.214-.345-1.288 0-1.966.668-1.966 1.851v1.556c0 1.054.293 1.35.52 1.554.347.317.791.459 1.432.459.24 0 .814-.05 1.206-.346.459-.345.535-.717.58-.922.038-.218.045-.26.053-.634h-1.221c0 .557-.151.937-.649.937m4.29-4.343h-1.235v5.166h3.67v-.963h-2.435zm4.683 3.259l.602-2.336h.03l.611 2.336h-1.243zm-.121-3.259l-1.56 5.166h1.184l.286-1.027h1.696l.279 1.027h1.183l-1.598-5.166h-1.47zm6.265 2.175l-.701-.238c-.34-.113-.702-.26-.702-.627 0-.057.016-.5.65-.5.429 0 .782.267.956.577l.912-.563c-.453-.619-1.024-.929-1.839-.929-1.138 0-1.802.613-1.802 1.464 0 1.02.724 1.366 1.56 1.668.83.303 1.057.387 1.057.774 0 .472-.476.585-.74.585-.475 0-.845-.268-1.047-.705l-.943.585c.497.83 1.071 1.048 2.043 1.048.28 0 .74-.077 1.062-.26.785-.443.785-1.134.785-1.366 0-.485-.242-.823-.31-.907-.218-.282-.61-.493-.941-.606m4.606 0l-.7-.238c-.34-.113-.701-.26-.701-.627 0-.057.015-.5.648-.5.43 0 .783.267.957.577l.912-.563c-.452-.619-1.025-.929-1.838-.929-1.14 0-1.803.613-1.803 1.464 0 1.02.724 1.366 1.56 1.668.83.303 1.056.387 1.056.774 0 .472-.475.585-.74.585-.473 0-.843-.268-1.047-.705l-.943.585c.498.83 1.072 1.048 2.044 1.048.279 0 .739-.077 1.063-.26.783-.443.783-1.134.783-1.366a1.5 1.5 0 0 0-.308-.907c-.22-.282-.611-.493-.943-.606m4.419 0c-.174.057-.28.057-.965.057v-1.43c.679 0 .828 0 1.017.064.242.085.362.26.362.62 0 .281-.031.563-.414.69m1.657-.676c0-1.387-1.139-1.5-2.034-1.5H50.45v5.167h1.199v-2.112h.407l1.047 2.111h1.32l-1.208-2.294c.778-.218 1.056-.718 1.056-1.372m3.415 1.943c0 .358 0 .929-.655.929-.543 0-.656-.387-.656-.93V43.83c0-.204 0-.795.672-.795.64 0 .64.436.64.795v1.795zm-.678-3.54c-.52 0-1.04.133-1.386.492-.385.394-.483.9-.483 1.429v1.386c0 .225.023.675.143 1.041.28.873 1.167 1.057 1.71 1.057.355 0 1.018-.05 1.478-.515.347-.352.474-.816.474-1.541V44.18c0-.83-.172-1.288-.481-1.597-.369-.373-.889-.5-1.455-.5zm5.708 3.54c0 .358 0 .929-.656.929-.543 0-.655-.387-.655-.93V43.83c0-.204 0-.795.67-.795.641 0 .641.436.641.795v1.795zm-.68-3.54c-.519 0-1.04.133-1.386.492-.385.394-.483.9-.483 1.429v1.386c0 .225.024.675.144 1.041.279.873 1.167 1.057 1.711 1.057.355 0 1.016-.05 1.476-.515.347-.352.475-.816.475-1.541V44.18c0-.83-.173-1.288-.481-1.597-.37-.373-.89-.5-1.456-.5zm6.236 2.23c-.135.457-.219.781-.301 1.211h-.038a30.258 30.258 0 0 0-.167-.648c-.059-.232-.09-.309-.158-.542l-.656-2.154h-1.627v5.166h1.048v-2.745c0-.218-.045-1.267-.053-1.507h.038l1.176 4.252h.836l1.146-4.252h.03c-.023.494-.052 1.107-.052 1.473v2.78h1.062v-5.167H68.92l-.648 2.133zm6.959.648c-.22-.282-.61-.493-.943-.606l-.701-.238c-.339-.113-.701-.26-.701-.627 0-.057.016-.5.648-.5.43 0 .785.267.958.577l.912-.563c-.452-.619-1.025-.929-1.839-.929-1.138 0-1.801.613-1.801 1.464 0 1.02.723 1.366 1.56 1.668.829.303 1.055.387 1.055.774 0 .472-.474.585-.738.585-.475 0-.844-.268-1.048-.705l-.943.585c.497.83 1.07 1.048 2.043 1.048.277 0 .739-.077 1.063-.26.784-.443.784-1.134.784-1.366a1.5 1.5 0 0 0-.309-.907"/>
    </g>
</svg>